# xmcd CD database file
#
# Track frame offsets:
#	150
#	27105
#	48556
#	68033
#	98762
#	129425
#	153666
#	172815
#	201149
#	220931
#	243871
#	261357
#	278897
#
# Disc length: 4217 seconds
#
# Revision: 5
# Processed by: cddbd v1.5.1PL2 Copyright (c) Steve Scherf et al.
# Submitted via: CDex 1.51
#
DISCID=b410770d
DTITLE=Various Artist - Morricone Rmx
DYEAR=2001
DGENRE=Trip-Hop
TTITLE0=Apollo Four Forty - The Man with the Harmonica
TTITLE1=Terranova - For a Few Dollars More
TTITLE2=Copasetic con Vivi e Selda - Here's to You
TTITLE3=Fantastic Plastic Machine - Belinda May (Edit)
TTITLE4=Bigga Brush from Rockers Hi-Fi - Clan of the Sicilians
TTITLE5=Nightmares on Wax - Chi May
TTITLE6=Thievery Corporation - Il Grande Silencio
TTITLE7=Ali N.Askin - Un Bacio
TTITLE8=Tommy Hools - Doricamente
TTITLE9=Groove Corporation - Giocoso, Gioioso
TTITLE10=Sofa Surfers - La Bambola - Come Maddalena
TTITLE11=De-Phazz - La Lucertola
TTITLE12=DJ Dick from Rockers Hi-Fi - Clan of the Sicilians
EXTD=YEAR: 2001
EXTT0=
EXTT1=
EXTT2=
EXTT3=
EXTT4=
EXTT5=
EXTT6=
EXTT7=
EXTT8=
EXTT9=
EXTT10=
EXTT11=
EXTT12=
PLAYORDER=
